<mxfile host="app.diagrams.net" modified="2023-05-02T02:50:14.027Z" agent="Mozilla/5.0 (X11; Linux x86_64; rv:109.0) Gecko/20100101 Firefox/111.0" etag="9MLh_mUcRka7nLcEG4Rw" version="21.2.1" type="device">
  <diagram name="Page-1" id="VikehX56ysNBYPJ9G46_">
    <mxGraphModel dx="1118" dy="667" grid="1" gridSize="10" guides="1" tooltips="1" connect="1" arrows="1" fold="1" page="1" pageScale="1" pageWidth="850" pageHeight="1100" math="0" shadow="0">
      <root>
        <mxCell id="0" />
        <mxCell id="1" parent="0" />
        <mxCell id="Mi6k7lorxAMqP3FqxkHg-1" style="edgeStyle=orthogonalEdgeStyle;rounded=0;orthogonalLoop=1;jettySize=auto;html=1;entryX=0;entryY=0.5;entryDx=0;entryDy=0;" edge="1" parent="1" source="Mi6k7lorxAMqP3FqxkHg-3" target="Mi6k7lorxAMqP3FqxkHg-7">
          <mxGeometry relative="1" as="geometry">
            <Array as="points">
              <mxPoint x="290" y="250" />
              <mxPoint x="290" y="330" />
            </Array>
          </mxGeometry>
        </mxCell>
        <mxCell id="Mi6k7lorxAMqP3FqxkHg-2" style="edgeStyle=orthogonalEdgeStyle;rounded=0;orthogonalLoop=1;jettySize=auto;html=1;entryX=0;entryY=0.5;entryDx=0;entryDy=0;" edge="1" parent="1" source="Mi6k7lorxAMqP3FqxkHg-3" target="Mi6k7lorxAMqP3FqxkHg-5">
          <mxGeometry relative="1" as="geometry">
            <Array as="points">
              <mxPoint x="290" y="250" />
              <mxPoint x="290" y="180" />
            </Array>
          </mxGeometry>
        </mxCell>
        <mxCell id="Mi6k7lorxAMqP3FqxkHg-3" value="Source" style="ellipse;whiteSpace=wrap;html=1;aspect=fixed;fillColor=#ffe6cc;strokeColor=#d79b00;" vertex="1" parent="1">
          <mxGeometry x="170" y="210" width="80" height="80" as="geometry" />
        </mxCell>
        <mxCell id="Mi6k7lorxAMqP3FqxkHg-4" style="edgeStyle=orthogonalEdgeStyle;rounded=0;orthogonalLoop=1;jettySize=auto;html=1;entryX=0.5;entryY=0;entryDx=0;entryDy=0;" edge="1" parent="1" source="Mi6k7lorxAMqP3FqxkHg-5" target="Mi6k7lorxAMqP3FqxkHg-11">
          <mxGeometry relative="1" as="geometry" />
        </mxCell>
        <mxCell id="Mi6k7lorxAMqP3FqxkHg-5" value="Stations consumer" style="ellipse;whiteSpace=wrap;html=1;aspect=fixed;" vertex="1" parent="1">
          <mxGeometry x="450" y="140" width="80" height="80" as="geometry" />
        </mxCell>
        <mxCell id="Mi6k7lorxAMqP3FqxkHg-6" value="" style="edgeStyle=orthogonalEdgeStyle;rounded=0;orthogonalLoop=1;jettySize=auto;html=1;" edge="1" parent="1" source="Mi6k7lorxAMqP3FqxkHg-7" target="Mi6k7lorxAMqP3FqxkHg-9">
          <mxGeometry relative="1" as="geometry" />
        </mxCell>
        <mxCell id="Mi6k7lorxAMqP3FqxkHg-7" value="Trips consumer" style="ellipse;whiteSpace=wrap;html=1;aspect=fixed;" vertex="1" parent="1">
          <mxGeometry x="345" y="290" width="80" height="80" as="geometry" />
        </mxCell>
        <mxCell id="Mi6k7lorxAMqP3FqxkHg-8" style="edgeStyle=orthogonalEdgeStyle;rounded=0;orthogonalLoop=1;jettySize=auto;html=1;entryX=0.5;entryY=1;entryDx=0;entryDy=0;" edge="1" parent="1" source="Mi6k7lorxAMqP3FqxkHg-9" target="Mi6k7lorxAMqP3FqxkHg-11">
          <mxGeometry relative="1" as="geometry" />
        </mxCell>
        <mxCell id="Mi6k7lorxAMqP3FqxkHg-9" value="Filter 2016 &amp;lt;= year &amp;lt;= 2017" style="ellipse;whiteSpace=wrap;html=1;aspect=fixed;" vertex="1" parent="1">
          <mxGeometry x="520" y="290" width="80" height="80" as="geometry" />
        </mxCell>
        <mxCell id="Mi6k7lorxAMqP3FqxkHg-10" value="" style="edgeStyle=orthogonalEdgeStyle;rounded=0;orthogonalLoop=1;jettySize=auto;html=1;" edge="1" parent="1" source="Mi6k7lorxAMqP3FqxkHg-11" target="Mi6k7lorxAMqP3FqxkHg-13">
          <mxGeometry relative="1" as="geometry" />
        </mxCell>
        <mxCell id="Mi6k7lorxAMqP3FqxkHg-11" value="Join by code, year and city" style="ellipse;whiteSpace=wrap;html=1;aspect=fixed;" vertex="1" parent="1">
          <mxGeometry x="630" y="220" width="80" height="80" as="geometry" />
        </mxCell>
        <mxCell id="Mi6k7lorxAMqP3FqxkHg-17" value="" style="edgeStyle=orthogonalEdgeStyle;rounded=0;orthogonalLoop=1;jettySize=auto;html=1;" edge="1" parent="1" source="Mi6k7lorxAMqP3FqxkHg-13" target="Mi6k7lorxAMqP3FqxkHg-16">
          <mxGeometry relative="1" as="geometry" />
        </mxCell>
        <mxCell id="Mi6k7lorxAMqP3FqxkHg-13" value="Trip count by year" style="ellipse;whiteSpace=wrap;html=1;aspect=fixed;" vertex="1" parent="1">
          <mxGeometry x="750" y="220" width="80" height="80" as="geometry" />
        </mxCell>
        <mxCell id="Mi6k7lorxAMqP3FqxkHg-14" value="Sink" style="ellipse;whiteSpace=wrap;html=1;aspect=fixed;fillColor=#d5e8d4;strokeColor=#82b366;" vertex="1" parent="1">
          <mxGeometry x="980" y="220" width="80" height="80" as="geometry" />
        </mxCell>
        <mxCell id="Mi6k7lorxAMqP3FqxkHg-18" value="" style="edgeStyle=orthogonalEdgeStyle;rounded=0;orthogonalLoop=1;jettySize=auto;html=1;" edge="1" parent="1" source="Mi6k7lorxAMqP3FqxkHg-16" target="Mi6k7lorxAMqP3FqxkHg-14">
          <mxGeometry relative="1" as="geometry" />
        </mxCell>
        <mxCell id="Mi6k7lorxAMqP3FqxkHg-16" value="Filter count_2017 &amp;gt; 2 * count_2016" style="ellipse;whiteSpace=wrap;html=1;aspect=fixed;" vertex="1" parent="1">
          <mxGeometry x="860" y="220" width="80" height="80" as="geometry" />
        </mxCell>
      </root>
    </mxGraphModel>
  </diagram>
</mxfile>
